0
SECTION
2
HEADER
9
$INSUNITS
70
4
9
$ACADVER
1
AC1014
9
$HANDSEED
5
FFFF
0
ENDSEC
0
SECTION
2
TABLES
0
TABLE
2
VPORT
5
8
100
AcDbSymbolTable
0
ENDTAB
0
TABLE
2
LTYPE
5
5
100
AcDbSymbolTable
0
LTYPE
5
14
100
AcDbSymbolTableRecord
100
AcDbLinetypeTableRecord
2
BYBLOCK
70
0
0
LTYPE
5
15
100
AcDbSymbolTableRecord
100
AcDbLinetypeTableRecord
2
BYLAYER
70
0
0
ENDTAB
0
TABLE
2
LAYER
5
2
100
AcDbSymbolTable
70
2
0
LAYER
5
50
100
AcDbSymbolTableRecord
100
AcDbLayerTableRecord
2
0
70
0
6
CONTINUOUS
0
ENDTAB
0
TABLE
2
STYLE
5
3
100
AcDbSymbolTable
70
1
0
STYLE
5
11
100
AcDbSymbolTableRecord
100
AcDbTextStyleTableRecord
2
STANDARD
70
0
0
ENDTAB
0
TABLE
2
VIEW
5
6
100
AcDbSymbolTable
70
0
0
ENDTAB
0
TABLE
2
UCS
5
7
100
AcDbSymbolTable
70
0
0
ENDTAB
0
TABLE
2
APPID
5
9
100
AcDbSymbolTable
70
2
0
APPID
5
12
100
AcDbSymbolTableRecord
100
AcDbRegAppTableRecord
2
ACAD
70
0
0
ENDTAB
0
TABLE
2
DIMSTYLE
5
A
100
AcDbSymbolTable
70
1
0
ENDTAB
0
TABLE
2
BLOCK_RECORD
5
1
100
AcDbSymbolTable
70
1
0
BLOCK_RECORD
5
1F
100
AcDbSymbolTableRecord
100
AcDbBlockTableRecord
2
*MODEL_SPACE
0
BLOCK_RECORD
5
1B
100
AcDbSymbolTableRecord
100
AcDbBlockTableRecord
2
*PAPER_SPACE
0
ENDTAB
0
ENDSEC
0
SECTION
2
BLOCKS
0
BLOCK
5
20
100
AcDbEntity
100
AcDbBlockBegin
2
*MODEL_SPACE
0
ENDBLK
5
21
100
AcDbEntity
100
AcDbBlockEnd
0
BLOCK
5
1C
100
AcDbEntity
100
AcDbBlockBegin
2
*PAPER_SPACE
0
ENDBLK
5
1D
100
AcDbEntity
100
AcDbBlockEnd
0
ENDSEC
0
SECTION
2
ENTITIES
0
CIRCLE
5
100
100
AcDbEntity
8
0
100
AcDbCircle
10
-162.81277591147443
20
94.000000000000085
30
0
40
6.0999999999999943
210
0
220
-0
230
1
0
CIRCLE
5
101
100
AcDbEntity
8
0
100
AcDbCircle
10
-93.999999999999886
20
162.81277591147455
30
0
40
6.0999999999999943
210
0
220
-0
230
1
0
CIRCLE
5
102
100
AcDbEntity
8
0
100
AcDbCircle
10
4.1744385725905886e-14
20
188
30
0
40
6.1000000000000023
210
0
220
-0
230
1
0
CIRCLE
5
103
100
AcDbEntity
8
0
100
AcDbCircle
10
94.000000000000043
20
162.81277591147443
30
0
40
6.0999999999999943
210
0
220
-0
230
1
0
CIRCLE
5
104
100
AcDbEntity
8
0
100
AcDbCircle
10
162.81277591147449
20
93.999999999999972
30
0
40
6.0999999999999943
210
0
220
-0
230
1
0
CIRCLE
5
105
100
AcDbEntity
8
0
100
AcDbCircle
10
188
20
-2.3023359823970243e-14
30
0
40
6.0999999999999943
210
0
220
-0
230
1
0
CIRCLE
5
106
100
AcDbEntity
8
0
100
AcDbCircle
10
162.81277591147443
20
-94.000000000000071
30
0
40
6.0999999999999943
210
0
220
-0
230
1
0
CIRCLE
5
107
100
AcDbEntity
8
0
100
AcDbCircle
10
93.999999999999972
20
-162.81277591147449
30
0
40
6.0999999999999943
210
0
220
-0
230
1
0
CIRCLE
5
108
100
AcDbEntity
8
0
100
AcDbCircle
10
4.1744385725905886e-14
20
-188.00000000000006
30
0
40
6.1000000000000023
210
0
220
-0
230
1
0
CIRCLE
5
109
100
AcDbEntity
8
0
100
AcDbCircle
10
-94.000000000000028
20
-162.81277591147446
30
0
40
6.0999999999999943
210
0
220
-0
230
1
0
CIRCLE
5
110
100
AcDbEntity
8
0
100
AcDbCircle
10
-162.81277591147446
20
-93.999999999999986
30
0
40
6.0999999999999943
210
0
220
-0
230
1
0
CIRCLE
5
111
100
AcDbEntity
8
0
100
AcDbCircle
10
-122.10958193360588
20
-70.499999999999972
30
0
40
2.7500000000000036
210
0
220
-0
230
1
0
CIRCLE
5
112
100
AcDbEntity
8
0
100
AcDbCircle
10
-1.7267519867977681e-14
20
-141
30
0
40
2.75
210
0
220
-0
230
1
0
CIRCLE
5
113
100
AcDbEntity
8
0
100
AcDbCircle
10
122.10958193360582
20
-70.500000000000043
30
0
40
2.7500000000000036
210
0
220
-0
230
1
0
CIRCLE
5
114
100
AcDbEntity
8
0
100
AcDbCircle
10
122.10958193360591
20
70.499999999999915
30
0
40
2.7500000000000036
210
0
220
-0
230
1
0
CIRCLE
5
115
100
AcDbEntity
8
0
100
AcDbCircle
10
-188
20
0
30
0
40
6.0999999999999943
210
0
220
-0
230
1
0
CIRCLE
5
116
100
AcDbEntity
8
0
100
AcDbCircle
10
0
20
0
30
0
40
110
210
0
220
-0
230
1
0
CIRCLE
5
117
100
AcDbEntity
8
0
100
AcDbCircle
10
0
20
141
30
0
40
2.75
210
0
220
-0
230
1
0
CIRCLE
5
118
100
AcDbEntity
8
0
100
AcDbCircle
10
-122.10958193360585
20
70.500000000000028
30
0
40
2.7500000000000036
210
0
220
-0
230
1
0
CIRCLE
5
119
100
AcDbEntity
8
0
100
AcDbCircle
10
0
20
0
30
0
40
275
210
0
220
0
230
1
0
LWPOLYLINE
5
120
100
AcDbEntity
8
0
100
AcDbPolyline
90
8
70
1
43
0.0
10
160.57379169113059
20
-55.821657284010669
42
0.0364011841386431
10
166.97181142851508
20
-31.94392255626294
42
0.42875845897557818
10
160.22769922779491
20
-22.518534591917966
10
131.46717725522382
20
-18.476506827416355
42
0.3966931585166989
10
122.51296282663833
20
-24.810762572696341
42
-0.031003098167263606
10
118.50471938711571
20
-39.769730738099504
42
0.39669315851669712
10
123.0921686805638
20
-49.732464341872173
10
150.02052521716189
20
-60.612226601297408
42
0.42875845897557663
0
LWPOLYLINE
5
121
100
AcDbEntity
8
0
100
AcDbPolyline
90
8
70
1
43
0.0
10
111.15015414450438
20
-128.62986913486705
42
0.036401184138642718
10
128.62986913486745
20
-111.15015414450389
42
0.42875845897558029
10
127.50199062524371
20
-99.61547262649691
10
104.61566185314739
20
-81.734712913350933
42
0.39669315851669595
10
93.693956814419352
20
-82.743232088538008
42
-0.03100309816726405
10
82.743232088538718
20
-93.693956814418712
42
0.39669315851669729
10
81.734712913351402
20
-104.61566185314679
10
99.615472626497464
20
-127.50199062524328
42
0.42875845897557613
0
LWPOLYLINE
5
122
100
AcDbEntity
8
0
100
AcDbPolyline
90
8
70
1
43
0.0
10
31.943922556263576
20
-166.97181142851474
42
0.0364011841386431
10
55.821657284011373
20
-160.57379169113
42
0.42875845897557308
10
60.612226601298033
20
-150.02052521716132
10
49.732464341872877
20
-123.0921686805634
42
0.39669315851669673
10
39.7697307381003
20
-118.50471938711514
42
-0.03100309816726405
10
24.81076257269698
20
-122.51296282663789
42
0.39669315851669812
10
18.476506827417023
20
-131.46717725522325
10
22.518534591918623
20
-160.22769922779452
42
0.42875845897557607
0
LWPOLYLINE
5
123
100
AcDbEntity
8
0
100
AcDbPolyline
90
8
70
1
43
0.0
10
-55.821657284010364
20
-160.57379169113011
42
0.036401184138642913
10
-31.943922556262518
20
-166.97181142851463
42
0.42875845897557729
10
-22.518534591917643
20
-160.22769922779446
10
-18.476506827416046
20
-131.46717725522339
42
0.3966931585166914
10
-24.810762572695655
20
-122.512962826638
42
-0.031003098167264494
10
-39.769730738099199
20
-118.50471938711529
42
0.39669315851669606
10
-49.732464341871847
20
-123.09216868056339
10
-60.612226601297088
20
-150.02052521716146
42
0.42875845897557679
0
LWPOLYLINE
5
124
100
AcDbEntity
8
0
100
AcDbPolyline
90
8
70
1
43
0.0
10
-128.62986913486674
20
-111.150154144504
42
0.036401184138643294
10
-111.15015414450333
20
-128.62986913486719
42
0.42875845897556841
10
-99.615472626496569
20
-127.50199062524337
10
-81.734712913350606
20
-104.61566185314702
42
0.39669315851669285
10
-82.743232088537724
20
-93.693956814418939
42
-0.03100309816726405
10
-93.693956814418385
20
-82.743232088538363
42
0.39669315851669817
10
-104.61566185314649
20
-81.734712913351032
10
-127.50199062524295
20
-99.615472626497109
42
0.42875845897557807
0
LWPOLYLINE
5
125
100
AcDbEntity
8
0
100
AcDbPolyline
90
8
70
1
43
0.0
10
-166.97181142851446
20
-31.943922556263168
42
0.036401184138643294
10
-160.57379169112974
20
-55.821657284010925
42
0.42875845897557574
10
-150.02052521716101
20
-60.612226601297593
10
-123.09216868056311
20
-49.732464341872458
42
0.39669315851669568
10
-118.50471938711493
20
-39.76973073809976
42
-0.031003098167263828
10
-122.5129628266376
20
-24.810762572696575
42
0.3966931585166984
10
-131.46717725522296
20
-18.47650682741661
10
-160.22769922779423
20
-22.518534591918215
42
0.42875845897557607
0
LWPOLYLINE
5
126
100
AcDbEntity
8
0
100
AcDbPolyline
90
8
70
1
43
0.0
10
-160.57379169112991
20
55.821657284010811
42
0.036401184138643294
10
-166.9718114285144
20
31.943922556262947
42
0.42875845897557802
10
-160.22769922779418
20
22.518534591918105
10
-131.46717725522311
20
18.476506827416486
42
0.39669315851668896
10
-122.51296282663775
20
24.810762572696131
42
-0.031003098167264494
10
-118.504719387115
20
39.769730738099646
42
0.39669315851669595
10
-123.09216868056311
20
49.732464341872287
10
-150.02052521716118
20
60.612226601297536
42
0.42875845897557646
0
LWPOLYLINE
5
127
100
AcDbEntity
8
0
100
AcDbPolyline
90
8
70
1
43
0.0
10
-111.15015414450372
20
128.62986913486716
42
0.036401184138643489
10
-128.62986913486691
20
111.15015414450376
42
0.42875845897556841
10
-127.50199062524308
20
99.615472626496995
10
-104.61566185314673
20
81.734712913351032
42
0.39669315851669285
10
-93.693956814418499
20
82.743232088538448
42
-0.031003098167263383
10
-82.743232088538079
20
93.693956814418812
42
0.39669315851669817
10
-81.734712913350748
20
104.61566185314692
10
-99.615472626496825
20
127.50199062524338
42
0.42875845897557807
0
LWPOLYLINE
5
128
100
AcDbEntity
8
0
100
AcDbPolyline
90
8
70
1
43
0.0
10
-31.943922556262955
20
166.97181142851494
42
0.0364011841386431
10
-55.821657284010811
20
160.57379169113011
42
0.42875845897557024
10
-60.612226601297422
20
150.02052521716143
10
-49.73246434187223
20
123.09216868056355
42
0.39669315851669296
10
-39.769730738099668
20
118.50471938711536
42
-0.03100309816726405
10
-24.810762572696326
20
122.51296282663805
42
0.39669315851669729
10
-18.476506827416358
20
131.46717725522342
10
-22.518534591917991
20
160.22769922779472
42
0.42875845897557613
0
LWPOLYLINE
5
129
100
AcDbEntity
8
0
100
AcDbPolyline
90
8
70
1
43
0.0
10
55.821657284011074
20
160.57379169113034
42
0.036401184138642718
10
31.943922556263459
20
166.97181142851477
42
0.42875845897558684
10
22.518534591918325
20
160.22769922779463
10
18.476506827416735
20
131.46717725522356
42
0.39669315851669212
10
24.810762572696756
20
122.51296282663814
42
-0.031003098167263606
10
39.769730738099895
20
118.50471938711544
42
0.39669315851669934
10
49.732464341872557
20
123.09216868056359
10
60.612226601297778
20
150.02052521716163
42
0.42875845897557663
0
LWPOLYLINE
5
130
100
AcDbEntity
8
0
100
AcDbPolyline
90
8
70
1
43
0.0
10
128.62986913486742
20
111.15015414450417
42
0.0364011841386431
10
111.15015414450411
20
128.62986913486733
42
0.42875845897557324
10
99.615472626497237
20
127.50199062524352
10
81.734712913351316
20
104.61566185314717
42
0.39669315851669912
10
82.743232088538434
20
93.693956814419181
42
-0.03100309816726405
10
93.693956814419096
20
82.743232088538505
42
0.39669315851669867
10
104.61566185314717
20
81.734712913351203
10
127.50199062524365
20
99.615472626497251
42
0.42875845897557741
0
LWPOLYLINE
5
131
100
AcDbEntity
8
0
100
AcDbPolyline
90
8
70
1
43
0.0
10
160.22769922779497
20
22.518534591918375
10
131.46717725522367
20
18.476506827416731
42
-0.3966931585166974
10
122.51296282663829
20
24.810762572696721
42
0.031003098167264018
10
118.5047193871157
20
39.769730738099923
42
-0.3966931585166959
10
123.09216868056382
20
49.732464341872614
10
150.02052521716169
20
60.612226601297763
42
-0.42875845897557097
10
160.5737916911304
20
55.821657284011309
42
-0.03640118413864344
10
166.97181142851514
20
31.943922556263328
42
-0.42875845897557624
0
ENDSEC
0
SECTION
2
OBJECTS
0
DICTIONARY
5
C
100
AcDbDictionary
3
ACAD_GROUP
350
D
3
ACAD_MLINESTYLE
350
17
0
DICTIONARY
5
D
100
AcDbDictionary
0
DICTIONARY
5
1A
330
C
100
AcDbDictionary
0
DICTIONARY
5
17
100
AcDbDictionary
0
ENDSEC
0
EOF
