0
SECTION
2
HEADER
9
$INSUNITS
70
4
9
$ACADVER
1
AC1014
9
$HANDSEED
5
FFFF
0
ENDSEC
0
SECTION
2
TABLES
0
TABLE
2
VPORT
5
8
100
AcDbSymbolTable
0
ENDTAB
0
TABLE
2
LTYPE
5
5
100
AcDbSymbolTable
0
LTYPE
5
14
100
AcDbSymbolTableRecord
100
AcDbLinetypeTableRecord
2
BYBLOCK
70
0
0
LTYPE
5
15
100
AcDbSymbolTableRecord
100
AcDbLinetypeTableRecord
2
BYLAYER
70
0
0
ENDTAB
0
TABLE
2
LAYER
5
2
100
AcDbSymbolTable
70
2
0
LAYER
5
50
100
AcDbSymbolTableRecord
100
AcDbLayerTableRecord
2
0
70
0
6
CONTINUOUS
0
ENDTAB
0
TABLE
2
STYLE
5
3
100
AcDbSymbolTable
70
1
0
STYLE
5
11
100
AcDbSymbolTableRecord
100
AcDbTextStyleTableRecord
2
STANDARD
70
0
0
ENDTAB
0
TABLE
2
VIEW
5
6
100
AcDbSymbolTable
70
0
0
ENDTAB
0
TABLE
2
UCS
5
7
100
AcDbSymbolTable
70
0
0
ENDTAB
0
TABLE
2
APPID
5
9
100
AcDbSymbolTable
70
2
0
APPID
5
12
100
AcDbSymbolTableRecord
100
AcDbRegAppTableRecord
2
ACAD
70
0
0
ENDTAB
0
TABLE
2
DIMSTYLE
5
A
100
AcDbSymbolTable
70
1
0
ENDTAB
0
TABLE
2
BLOCK_RECORD
5
1
100
AcDbSymbolTable
70
1
0
BLOCK_RECORD
5
1F
100
AcDbSymbolTableRecord
100
AcDbBlockTableRecord
2
*MODEL_SPACE
0
BLOCK_RECORD
5
1B
100
AcDbSymbolTableRecord
100
AcDbBlockTableRecord
2
*PAPER_SPACE
0
ENDTAB
0
ENDSEC
0
SECTION
2
BLOCKS
0
BLOCK
5
20
100
AcDbEntity
100
AcDbBlockBegin
2
*MODEL_SPACE
0
ENDBLK
5
21
100
AcDbEntity
100
AcDbBlockEnd
0
BLOCK
5
1C
100
AcDbEntity
100
AcDbBlockBegin
2
*PAPER_SPACE
0
ENDBLK
5
1D
100
AcDbEntity
100
AcDbBlockEnd
0
ENDSEC
0
SECTION
2
ENTITIES
0
CIRCLE
5
100
100
AcDbEntity
8
0
100
AcDbCircle
10
0
20
0
30
0
40
32
210
0
220
0
230
1
0
LWPOLYLINE
5
101
100
AcDbEntity
8
0
100
AcDbPolyline
90
6
70
1
43
0.0
10
105.21601356795934
20
-56.345621708734924
10
72.649994700015895
20
-4.2399915200254421
42
-0.28679622641132102
10
72.649994700015895
20
4.239991520025443
10
105.21601356795928
20
56.345621708734875
42
-0.7535172241812278
10
120
20
52.105630188709426
10
120
20
-52.105630188709497
42
-0.75351722418122913
0
CIRCLE
5
102
100
AcDbEntity
8
0
100
AcDbCircle
10
-34.4714555828442
20
34.471455582844193
30
0
40
7.0000000000000018
210
0
220
0
230
1
0
CIRCLE
5
103
100
AcDbEntity
8
0
100
AcDbCircle
10
-34.471455582844193
20
-34.471455582844214
30
0
40
7.0000000000000018
210
0
220
0
230
1
0
CIRCLE
5
104
100
AcDbEntity
8
0
100
AcDbCircle
10
34.471455582844193
20
-34.4714555828442
30
0
40
7.0000000000000018
210
0
220
0
230
1
0
CIRCLE
5
105
100
AcDbEntity
8
0
100
AcDbCircle
10
34.4714555828442
20
34.471455582844193
30
0
40
7.0000000000000018
210
0
220
0
230
1
0
LWPOLYLINE
5
106
100
AcDbEntity
8
0
100
AcDbPolyline
90
6
70
1
43
0.0
10
-120
20
-52.105630188709497
42
0.75351722418122913
10
-105.21601356795934
20
-56.345621708734939
10
-72.649994700015895
20
-4.2399915200254359
42
0.28679622641132035
10
-72.649994700015895
20
4.2399915200254412
10
-105.21601356795928
20
56.345621708734861
42
0.75351722418122757
10
-120
20
52.105630188709426
0
LWPOLYLINE
5
107
100
AcDbEntity
8
0
100
AcDbPolyline
90
18
70
1
43
0.0
10
-149.99999999999997
20
-147
42
0.41421356237309503
10
-147
20
-149.99999999999997
10
-121.47884710427277
20
-150
42
0.23182055870913684
10
-119.10815172065958
20
-148.83842416164359
42
-0.23011637381365421
10
4.4408920985006262e-14
20
-90
42
-0.23011637381365446
10
119.10815172065951
20
-148.83842416164356
42
0.2318205587091299
10
121.47884710427276
20
-149.99999999999997
10
147
20
-149.99999999999997
42
0.41421356237309503
10
149.99999999999997
20
-147
10
150
20
147
42
0.41421356237309503
10
147
20
150
10
121.47884710427277
20
150
42
0.23182055870914298
10
119.10815172065955
20
148.83842416164364
42
-0.23011637381365468
10
9.7699626167013776e-14
20
89.999999999999986
42
-0.2301163738136548
10
-119.10815172065959
20
148.83842416164367
42
0.23182055870913715
10
-121.47884710427277
20
150
10
-147
20
150
42
0.41421356237309337
10
-150
20
147
0
ENDSEC
0
SECTION
2
OBJECTS
0
DICTIONARY
5
C
100
AcDbDictionary
3
ACAD_GROUP
350
D
3
ACAD_MLINESTYLE
350
17
0
DICTIONARY
5
D
100
AcDbDictionary
0
DICTIONARY
5
1A
330
C
100
AcDbDictionary
0
DICTIONARY
5
17
100
AcDbDictionary
0
ENDSEC
0
EOF
